<?xml version="1.0" encoding="utf-8"?>
<!-- Generator: Adobe Illustrator 16.0.3, SVG Export Plug-In . SVG Version: 6.00 Build 0)  -->
<!DOCTYPE svg PUBLIC "-//W3C//DTD SVG 1.1//EN" "http://www.w3.org/Graphics/SVG/1.1/DTD/svg11.dtd">
<svg version="1.1" id="Слой_1" xmlns="http://www.w3.org/2000/svg" xmlns:xlink="http://www.w3.org/1999/xlink" x="0px" y="0px"
	 width="225.46px" height="84.194px" viewBox="0 0 225.46 84.194" enable-background="new 0 0 225.46 84.194" xml:space="preserve">
<g>
	<polygon fill="#434343" points="46.691,60.857 46.691,3.4 32.727,3.4 32.727,35 8.938,3.4 0.571,3.4 0.571,60.857 14.507,60.857 
		14.507,29.257 38.324,60.857 	"/>
	<path fill-rule="evenodd" clip-rule="evenodd" fill="#76C043" d="M52.717,11.143l8.311,2.686l-4.998,6.886L60.57,24l4.854-6.686
		l4.712,6.485l4.569-3.286l-4.94-6.771l7.968-2.6L75.991,5.8l-7.967,2.572V0c-1.856,0-3.741,0-5.598,0v8.372L54.459,5.8
		L52.717,11.143z"/>
	<path fill-rule="evenodd" clip-rule="evenodd" fill="#434343" d="M96.324,20.829V3.4h-1.2v14.943L84.016,3.4h-0.628v17.429h1.199
		V5.886l11.137,14.943H96.324z M107.004,8.2c-3.541,0-6.368,2.857-6.368,6.4s2.827,6.372,6.368,6.372s6.396-2.829,6.396-6.372
		S110.545,8.2,107.004,8.2L107.004,8.2z M107.033,9.286c2.855,0,5.254,2.314,5.254,5.314c0,3.028-2.399,5.314-5.254,5.314
		c-2.884,0-5.255-2.286-5.255-5.314C101.778,11.6,104.149,9.286,107.033,9.286L107.033,9.286z M122.254,20.829l5.711-12.457h-1.199
		l-4.854,10.6l-4.826-10.6h-1.199l5.739,12.457H122.254z M136.819,8.2c-3.542,0-6.397,2.857-6.397,6.4s2.855,6.372,6.397,6.372
		c3.512,0,6.396-2.829,6.396-6.372S140.331,8.2,136.819,8.2L136.819,8.2z M136.847,9.286c2.855,0,5.226,2.314,5.226,5.314
		c0,3.028-2.37,5.314-5.226,5.314c-2.913,0-5.255-2.286-5.255-5.314C131.592,11.6,133.934,9.286,136.847,9.286L136.847,9.286z
		 M151.497,8.2c-2.484,0-4.54,1.286-4.54,3.371c0,1.6,0.942,2.8,3.998,3.143l1.742,0.2c1.428,0.143,2.998,0.4,2.998,2.543
		c0,1.771-1.771,2.571-3.77,2.571h-0.114c-1.971,0-3.941-0.942-4.598-2.229l-0.686,0.629c0.8,1.514,2.97,2.571,5.283,2.571h0.229
		c2.627,0,4.798-1.286,4.798-3.6c0-2.743-2.113-3.314-3.97-3.486l-1.799-0.2c-2.57-0.286-2.971-1.171-2.971-2.2
		c0-1.457,1.542-2.371,3.513-2.371h0.229c1.399,0,3.198,0.771,4.026,2.028l0.686-0.657c-0.971-1.4-2.998-2.314-4.74-2.314H151.497z
		 M161.749,6.6c0.429,0,0.743-0.314,0.743-0.686c0-0.4-0.314-0.714-0.743-0.714c-0.428,0-0.742,0.314-0.742,0.714
		C161.006,6.286,161.321,6.6,161.749,6.6L161.749,6.6z M161.207,20.829h1.113V8.372h-1.113V20.829z M168.431,3.4h-1.113v17.429
		h0.856l0.058-3.314c0.942,2.057,3.055,3.458,5.482,3.458c3.541,0,6.312-2.829,6.312-6.372s-2.771-6.4-6.312-6.4
		c-2.342,0-4.369,1.4-5.283,3.371V3.4z M173.658,9.286c2.884,0,5.254,2.314,5.254,5.314c0,3.028-2.37,5.314-5.254,5.314
		c-2.885,0-5.255-2.286-5.255-5.314C168.403,11.6,170.773,9.286,173.658,9.286L173.658,9.286z M184.966,6.6
		c0.399,0,0.742-0.314,0.742-0.686c0-0.4-0.343-0.714-0.742-0.714c-0.429,0-0.742,0.314-0.742,0.714
		C184.224,6.286,184.538,6.6,184.966,6.6L184.966,6.6z M184.395,20.829h1.143V8.372h-1.143V20.829z M197.731,9.286V8.2h-0.229
		c-2.827,0-5.055,1.229-6.025,3.857l-0.086-3.686h-0.885v12.457h1.113v-5.2c0-3.485,1.514-6.343,5.654-6.343H197.731z M205.299,8.2
		c-2.485,0-4.541,1.286-4.541,3.371c0,1.6,0.942,2.8,3.998,3.143l1.742,0.2c1.428,0.143,2.998,0.4,2.998,2.543
		c0,1.771-1.771,2.571-3.77,2.571h-0.114c-1.999,0-3.94-0.942-4.598-2.229l-0.686,0.629C201.101,19.943,203.3,21,205.613,21h0.229
		c2.628,0,4.77-1.286,4.77-3.6c0-2.743-2.085-3.314-3.941-3.486l-1.799-0.2c-2.57-0.286-2.998-1.171-2.998-2.2
		c0-1.457,1.57-2.371,3.541-2.371h0.229c1.398,0,3.198,0.771,3.998,2.028l0.714-0.657c-0.972-1.4-2.999-2.314-4.741-2.314H205.299z
		 M224.175,20.829h1.285l-2.37-3.6c-1.028-1.628-1.656-2.571-2.771-2.886c0.886-0.4,1.485-1.343,2.428-2.771l2.113-3.2h-1.285
		l-1.714,2.657c-1.342,2.086-1.827,2.829-3.884,2.829h-2.113V3.4h-1.113v17.429h1.113v-5.886h2.456c2.057,0,2.542,0.714,3.884,2.829
		L224.175,20.829z M89.47,23.286c-2.999,0-5.797,1.829-5.797,4.714c0,2.4,1.656,3.628,5.226,4.143l2.142,0.286
		c2.855,0.4,4.227,1.457,4.227,3.686c0,2.4-2.342,3.857-5.026,3.857H90.07c-3.141,0-5.254-1.429-6.054-3.543l-0.771,0.714
		c0.971,2.371,3.37,3.943,6.825,3.943h0.171c3.313,0,6.226-1.943,6.226-4.972c0-2.971-1.828-4.314-5.312-4.8l-2.142-0.286
		c-2.97-0.428-4.141-1.343-4.141-3.057c0-2.314,2.37-3.543,4.598-3.543h0.286c2.113,0,4.141,0.857,5.312,2.514l0.771-0.743
		c-1.313-1.857-3.598-2.915-6.083-2.915H89.47z M102.606,29.514h1.914v-1.057h-1.914v-4.2h-1.114v4.2H99.58v1.057h1.913v11.4h1.114
		V29.514z M120.312,40.914V28.457h-0.885l-0.058,3.314c-0.942-2.086-3.056-3.486-5.482-3.486c-3.542,0-6.312,2.857-6.312,6.4
		c0,3.543,2.77,6.372,6.312,6.372c2.427,0,4.54-1.429,5.482-3.457l0.058,3.314H120.312z M113.972,40
		c-2.884,0-5.254-2.314-5.254-5.314c0-3.028,2.371-5.343,5.254-5.343c2.885,0,5.255,2.314,5.255,5.343
		C119.227,37.686,116.857,40,113.972,40L113.972,40z M127.394,29.514h1.914v-1.057h-1.914v-4.2h-1.113v4.2h-1.913v1.057h1.913v11.4
		h1.113V29.514z M138.732,28.286c-3.77,0-6.34,2.857-6.34,6.4c0,3.829,2.685,6.372,6.597,6.372c2.113,0,3.855-0.771,5.197-1.886
		l-0.628-0.714c-1.257,0.972-2.771,1.6-4.569,1.571c-3.227,0-5.454-1.942-5.454-5.143h11.08c0.171-0.686,0.086-1.972-0.257-2.829
		C143.5,29.829,141.501,28.286,138.732,28.286L138.732,28.286z M138.76,29.314c2.256,0,3.884,1.257,4.598,3.085
		c0.2,0.486,0.286,1.171,0.286,1.657h-10.053C133.763,31.429,135.819,29.314,138.76,29.314L138.76,29.314z M96.981,43.4h-1.2v9.828
		c0,4.086-2.142,6.658-5.94,6.658c-3.798,0-5.911-2.572-5.911-6.658V43.4h-1.199v9.857c0,4.629,2.684,7.771,7.11,7.771
		c4.427,0,7.14-3.143,7.14-7.771V43.4z M108.118,48.201c-1.913,0-4.255,0.971-5.254,3.457l-0.057-3.258h-0.885v12.428h1.142V55
		c0-3.57,1.942-5.713,4.94-5.713c2.656,0,4.398,1.541,4.398,4.828v6.713h1.143v-6.77C113.544,50.314,111.431,48.201,108.118,48.201
		L108.118,48.201z M119.113,46.628c0.429,0,0.742-0.342,0.742-0.715c0-0.398-0.313-0.713-0.742-0.713s-0.742,0.314-0.742,0.713
		C118.371,46.287,118.684,46.628,119.113,46.628L119.113,46.628z M118.57,60.828h1.114V48.4h-1.114V60.828z M129.565,60.828
		l5.711-12.428h-1.171l-4.854,10.572L124.424,48.4h-1.199l5.712,12.428H129.565z M144.1,48.201c-3.77,0-6.339,2.885-6.339,6.398
		c0,3.857,2.684,6.373,6.597,6.4c2.113,0,3.854-0.771,5.226-1.914l-0.657-0.686c-1.228,0.971-2.77,1.572-4.568,1.572
		c-3.228-0.029-5.455-1.943-5.455-5.172h11.08c0.2-0.658,0.086-1.943-0.228-2.801C148.87,49.771,146.871,48.201,144.1,48.201
		L144.1,48.201z M144.129,49.257c2.256,0,3.912,1.258,4.598,3.057c0.199,0.514,0.313,1.172,0.285,1.686h-10.023
		C139.16,51.343,141.188,49.257,144.129,49.257L144.129,49.257z M161.263,49.287v-1.086h-0.229c-2.827,0-5.055,1.229-6.025,3.885
		l-0.114-3.686h-0.856v12.428h1.113v-5.199c0-3.486,1.514-6.342,5.654-6.342H161.263z M168.832,48.201
		c-2.484,0-4.541,1.285-4.541,3.371c0,1.6,0.942,2.799,3.998,3.143l1.742,0.199c1.428,0.172,2.998,0.4,2.998,2.543
		c0,1.771-1.771,2.602-3.77,2.602h-0.114c-1.999,0-3.969-0.973-4.598-2.258l-0.714,0.656c0.8,1.486,2.999,2.572,5.312,2.572h0.229
		c2.599,0,4.77-1.314,4.77-3.629c0-2.742-2.085-3.285-3.941-3.486l-1.799-0.199c-2.57-0.285-2.999-1.172-2.999-2.199
		c0-1.457,1.571-2.344,3.542-2.344h0.229c1.398,0,3.198,0.771,3.998,2l0.714-0.629c-0.972-1.428-2.999-2.342-4.741-2.342H168.832z
		 M179.083,46.628c0.428,0,0.742-0.342,0.742-0.715c0-0.398-0.314-0.713-0.742-0.713c-0.429,0-0.743,0.314-0.743,0.713
		C178.34,46.287,178.655,46.628,179.083,46.628L179.083,46.628z M178.541,60.828h1.114V48.4h-1.114V60.828z M186.937,49.457h1.913
		V48.4h-1.913v-4.199h-1.143V48.4h-1.913v1.057h1.913v11.371h1.143V49.457z M204.271,48.4h-1.143v5.742
		c0,3.543-1.971,5.715-4.94,5.715c-2.655,0-4.426-1.543-4.426-4.857v-6.6h-1.114v6.658c0,3.77,2.113,5.855,5.397,5.855
		c1.827,0,4.084-0.855,5.083-3.285v1.828c0,3.258-1.599,5.086-4.798,5.086c-1.855,0.029-3.313-0.6-4.598-1.57l-0.656,0.742
		c1.37,1.143,3.112,1.885,5.254,1.885c3.913-0.027,5.94-2.457,5.94-6.313V48.4z"/>
	<path fill-rule="evenodd" clip-rule="evenodd" fill="#434343" d="M21.218,72.658h3.969v-1.973h-9.995v1.973h3.941v11.6h2.085
		V72.658z M38.581,84.257V70.685h-2.084v5.744h-6.226v-5.744h-2.113v13.572h2.113V78.4h6.226v5.857H38.581z M44.892,76.429v-3.771
		h6.711v-1.973h-8.795v13.572h8.795v-1.971h-6.711V78.4h6.254v-1.971H44.892z M61.113,70.685v13.572h2.084v-3.572h2.142
		c1.399,0.029,1.885,0.314,2.941,2l1.028,1.572h2.342l-1.256-1.943C69.566,81,68.938,80.343,68.252,80
		c1.971-0.656,3.199-2.172,3.199-4.314c0-2.941-2.228-5-5.854-5H61.113z M63.197,72.658h2.57c2.056,0,3.712,0.971,3.712,3.027
		c0,2.143-1.656,3.029-3.712,3.029h-2.57V72.658z M76.705,76.429v-3.771h6.74v-1.973h-8.824v13.572h8.824v-1.971h-6.74V78.4h6.254
		v-1.971H76.705z M88.871,81.201h5.283l1.228,3.057h2.284l-5.511-13.572h-1.228L85.33,84.257h2.313L88.871,81.201z M91.526,74.515
		l1.914,4.713h-3.827L91.526,74.515z M109.061,84.257v-1.971h-6.511V70.685h-2.113v13.572H109.061z M122.483,70.542
		c-2.656,0.029-4.855,1.543-4.855,3.973c0,2.229,1.742,3.256,4.398,3.543l1.285,0.17c1.656,0.201,2.741,0.715,2.741,2.059
		c0,1.313-1.285,2.113-3.027,2.143h-0.114c-2.17,0-3.627-1.029-4.255-2.143l-1.342,1.256c0.942,1.572,2.884,2.828,5.597,2.828h0.114
		c2.856,0,5.112-1.543,5.112-4.084c0-2.629-1.828-3.658-4.569-4l-1.257-0.145c-1.599-0.229-2.599-0.627-2.599-1.686
		c0-1.371,1.57-1.941,2.771-1.941h0.171c1.199,0,2.713,0.6,3.684,1.543l1.371-1.258c-1.257-1.344-3.142-2.258-5.055-2.258H122.483z
		 M137.333,70.542c-3.827,0-6.911,3.115-6.911,6.914c0,3.83,3.084,6.914,6.911,6.914c1.999,0,3.826-0.855,5.111-2.229l-1.37-1.256
		c-0.972,0.971-2.285,1.514-3.741,1.514c-2.713,0-4.826-2.057-4.826-4.943c0-2.857,2.113-4.914,4.826-4.914
		c1.456,0,2.77,0.543,3.741,1.516l1.37-1.258C141.159,71.429,139.332,70.542,137.333,70.542L137.333,70.542z M149.298,82.287v-9.629
		h1.599v-1.973h-5.283v1.973h1.6v9.629h-1.6v1.971h5.283v-1.971H149.298z M157.008,76.429v-3.771h6.711v-1.973h-8.796v13.572h8.796
		v-1.971h-6.711V78.4h6.254v-1.971H157.008z M177.169,84.257V70.685h-2.112v9.572l-7.14-9.572h-1.229v13.572h2.085v-9.572
		l7.168,9.572H177.169z M187.194,70.542c-3.827,0-6.911,3.115-6.911,6.914c0,3.83,3.084,6.914,6.911,6.914
		c1.999,0,3.826-0.855,5.111-2.229l-1.37-1.256c-0.972,0.971-2.285,1.514-3.741,1.514c-2.713,0-4.798-2.057-4.798-4.943
		c0-2.857,2.085-4.914,4.798-4.914c1.456,0,2.77,0.543,3.741,1.516l1.37-1.258C191.02,71.429,189.193,70.542,187.194,70.542
		L187.194,70.542z M197.56,76.429v-3.771h6.711v-1.973h-8.796v13.572h8.796v-1.971h-6.711V78.4h6.254v-1.971H197.56z"/>
	<path fill-rule="evenodd" clip-rule="evenodd" fill="#434343" d="M12.394,73.343l-4.112,1.342l2.484,3.4L8.51,79.714L6.083,76.4
		L3.77,79.628l-2.256-1.656l2.427-3.344L0,73.343l0.857-2.658l3.941,1.287v-4.145c0.942,0,1.856,0,2.798,0v4.145l3.941-1.287
		L12.394,73.343z"/>
</g>
</svg>
